<svg width="48" height="48" viewBox="0 0 48 48" fill="none" xmlns="http://www.w3.org/2000/svg">
<rect width="48" height="48" rx="24" fill="black"/>
<path d="M17.0367 14.5567C17.0364 15.2344 16.7707 15.8843 16.2982 16.3633C15.8257 16.8423 15.185 17.1112 14.5171 17.1108C13.8492 17.1105 13.2088 16.8409 12.7367 16.3615C12.2647 15.882 11.9997 15.2319 12 14.5541C12.0003 13.8764 12.266 13.2266 12.7385 12.7476C13.211 12.2686 13.8517 11.9997 14.5196 12C15.1875 12.0003 15.828 12.2699 16.3 12.7494C16.7721 13.2288 17.0371 13.879 17.0367 14.5567ZM17.1123 19.0031H12.0756V35H17.1123V19.0031ZM25.0703 19.0031H20.0588V35H25.0199V26.6055C25.0199 21.9291 31.0262 21.4946 31.0262 26.6055V35H36V24.8678C36 16.9843 27.1102 17.2782 25.0199 21.1497L25.0703 19.0031Z" fill="white"/>
</svg>
