<svg width="48" height="48" viewBox="0 0 48 48" fill="none" xmlns="http://www.w3.org/2000/svg">
<rect width="48" height="48" rx="24" fill="black"/>
<path d="M31.0408 13.7C29.9948 12.3992 29.4182 10.729 29.4184 9H24.6888V29.6667C24.6531 30.7853 24.2197 31.8451 23.4801 32.6225C22.7404 33.3999 21.7524 33.834 20.7245 33.8333C18.551 33.8333 16.7449 31.9 16.7449 29.5C16.7449 26.6333 19.2857 24.4833 21.9031 25.3667V20.1C16.6224 19.3333 12 23.8 12 29.5C12 35.05 16.2245 39 20.7092 39C25.5153 39 29.4184 34.75 29.4184 29.5V19.0167C31.3362 20.5164 33.6388 21.3211 36 21.3167V16.1667C36 16.1667 33.1224 16.3167 31.0408 13.7Z" fill="white"/>
</svg>
