<svg width="48" height="48" viewBox="0 0 48 48" fill="none" xmlns="http://www.w3.org/2000/svg">
<rect width="48" height="48" rx="24" fill="black"/>
<path d="M37 14.9412C36.0798 15.4559 35.088 15.7941 34.0602 15.9559C35.1119 15.1765 35.9245 13.9412 36.3069 12.4559C35.315 13.1912 34.2156 13.7059 33.0564 14C32.1123 12.7353 30.7859 12 29.2801 12C26.4718 12 24.1773 14.8235 24.1773 18.3088C24.1773 18.8088 24.2251 19.2941 24.3088 19.75C20.0545 19.4853 16.2663 16.9706 13.7447 13.1618C13.3026 14.0882 13.0516 15.1765 13.0516 16.3235C13.0516 18.5147 13.9479 20.4559 15.3341 21.5588C14.4857 21.5588 13.6969 21.2647 13.0038 20.8235V20.8676C13.0038 23.9265 14.7725 26.4853 17.1147 27.0588C16.3629 27.3131 15.5732 27.3484 14.8083 27.1618C15.1329 28.4154 15.7686 29.5124 16.626 30.2984C17.4834 31.0845 18.5194 31.5201 19.5884 31.5441C17.7764 33.3096 15.5301 34.2638 13.2189 34.25C12.8126 34.25 12.4063 34.2206 12 34.1618C14.2706 35.9559 16.9713 37 19.8633 37C29.2801 37 34.4546 27.3824 34.4546 19.0441C34.4546 18.7647 34.4546 18.5 34.4426 18.2206C35.4465 17.3382 36.3069 16.2206 37 14.9412Z" fill="white"/>
</svg>
