<svg width="48" height="48" viewBox="0 0 48 48" fill="none" xmlns="http://www.w3.org/2000/svg">
<path d="M0 24C0 10.7452 10.7452 0 24 0C37.2548 0 48 10.7452 48 24C48 37.2548 37.2548 48 24 48C10.7452 48 0 37.2548 0 24Z" fill="black"/>
<path d="M29.772 17.772C30.6004 17.772 31.272 17.1004 31.272 16.272C31.272 15.4435 30.6004 14.772 29.772 14.772C28.9435 14.772 28.272 15.4435 28.272 16.272C28.272 17.1004 28.9435 17.772 29.772 17.772Z" fill="white"/>
<path d="M28.9334 11.5615C32.6134 11.5615 35.6001 14.5482 35.6001 18.2282V28.8949C35.6001 32.5749 32.6134 35.5615 28.9334 35.5615H18.2668C14.5868 35.5615 11.6001 32.5749 11.6001 28.8949V18.2282C11.6001 14.5482 14.5868 11.5615 18.2668 11.5615H23.6001H28.9334Z" stroke="white" stroke-width="2" stroke-linecap="round" stroke-linejoin="round"/>
<path d="M23.6002 18.2283C26.5468 18.2283 28.9335 20.6149 28.9335 23.5616C28.9335 26.5083 26.5468 28.8949 23.6002 28.8949C20.6535 28.8949 18.2668 26.5083 18.2668 23.5616C18.2668 20.6149 20.6535 18.2283 23.6002 18.2283Z" stroke="white" stroke-width="2" stroke-linecap="round" stroke-linejoin="round"/>
</svg>
