<svg width="24" height="24" viewBox="0 0 24 24" fill="none" xmlns="http://www.w3.org/2000/svg">
<g clip-path="url(#clip0_273_46)">
<path d="M7.01432 7.86558C5.19369 10.2056 5.22557 14.3624 7.55244 16.4231C10.1943 18.7612 13.9124 18.7368 16.2506 16.5862C19.0537 14.0062 18.8924 9.71245 16.4137 7.28058C13.9218 4.83558 9.46869 4.70808 7.01432 7.86558Z" fill="#FCC11A"/>
<path d="M9.93745 7.06315C9.21745 6.7444 8.42995 7.61252 8.08682 8.20502C7.7437 8.7994 7.42495 9.96377 8.1562 10.2619C8.88745 10.5581 9.41245 10.0556 9.93932 9.18752C10.4624 8.3194 10.7606 7.42877 9.93745 7.06315Z" fill="#FEE269"/>
<path d="M11.8125 3.80062C11.6381 4.12687 11.6962 4.37812 12.0431 4.46062C12.39 4.54312 14.5481 4.89375 14.73 4.905C14.9943 4.92187 15.0918 4.72312 15.06 4.4925C15.0262 4.26187 14.4993 1.03125 14.4506 0.734997C14.4018 0.438747 14.0887 0.142497 13.7906 0.538122C13.4925 0.933747 11.9437 3.555 11.8125 3.80062ZM17.4 6.04312C17.0606 6.14812 17.07 6.35625 17.2518 6.62062C17.4337 6.885 18.6862 8.79562 18.8006 8.92875C18.9168 9.06 19.1137 9.09375 19.2787 8.895C19.4437 8.69812 21.5025 5.81062 21.6525 5.63062C21.9 5.33437 21.7518 5.02125 21.3731 5.11875C21.0843 5.19562 17.6137 5.9775 17.4 6.04312ZM19.9875 11.5987C19.7437 11.46 19.4268 11.4994 19.3443 11.8125C19.2618 12.1256 18.9 14.4 18.8662 14.5987C18.8325 14.7975 18.9825 14.9944 19.2281 14.9456C19.4737 14.8969 22.875 14.3925 23.1018 14.3362C23.4975 14.2369 23.6287 13.8412 23.2181 13.545C22.9518 13.3519 20.2181 11.73 19.9875 11.5987ZM17.2668 16.9875C17.5293 16.8469 17.7618 16.9537 17.8275 17.2519C17.8931 17.5481 18.6187 20.5819 18.735 21.1425C18.7931 21.4237 18.4706 21.6544 18.2081 21.4894C17.9437 21.3244 15.0787 19.3275 14.895 19.1644C14.6306 18.9337 14.8143 18.6937 14.9437 18.5719C15.2062 18.3225 17.0193 17.1206 17.2668 16.9875ZM9.2887 18.6525C8.95683 18.6206 8.85933 18.9169 8.90995 19.1794C8.9587 19.4437 9.4537 22.7869 9.48745 23.0362C9.5362 23.3981 9.91683 23.5481 10.1625 23.1844C10.4081 22.8206 12.1031 20.1094 12.24 19.8544C12.4875 19.3931 12.3056 19.2937 12.0581 19.1794C11.8125 19.065 9.63558 18.6862 9.2887 18.6525ZM4.54308 14.8125C4.7737 14.4337 5.06995 14.5331 5.28558 14.895C5.43183 15.1425 6.66933 16.8075 6.78558 16.9875C6.90183 17.1694 6.95058 17.5144 6.5887 17.5969C6.22308 17.6812 3.2737 18.4556 2.81245 18.5381C2.3512 18.6206 2.08683 18.2587 2.38308 17.8631C2.55558 17.6306 4.41183 15.0281 4.54308 14.8125ZM3.91683 11.9437C4.3387 12.1312 4.53745 12.0637 4.62558 11.7619C4.74183 11.3662 5.08683 9.55312 5.1037 9.14062C5.11495 8.8725 5.00433 8.61375 4.59183 8.67937C4.17933 8.745 1.21308 9.15937 0.834329 9.29062C0.393704 9.44437 0.425579 9.92812 0.718079 10.0819C1.06495 10.2637 3.6187 11.8125 3.91683 11.9437ZM9.04308 5.02125C9.2812 4.83187 9.20808 4.56 8.99433 4.41187C8.78058 4.26375 6.13308 2.34937 5.79745 2.08687C5.5012 1.85625 5.13745 1.93875 5.23683 2.46562C5.30808 2.84437 6.15183 6.15937 6.20995 6.38812C6.27558 6.6525 6.47433 6.78375 6.70495 6.61875C6.93183 6.45562 8.79558 5.22 9.04308 5.02125Z" fill="#FFA722"/>
</g>
<defs>
<clipPath id="clip0_273_46">
<rect width="24" height="24" fill="white"/>
</clipPath>
</defs>
</svg>
